<svg id="Layer_1" data-name="Layer 1" xmlns="http://www.w3.org/2000/svg" viewBox="0 0 302.99 82.05"><defs><style>.cls-1{fill:#e1141c;}.cls-2{font-size:42.51px;letter-spacing:0.02em;}.cls-2,.cls-5,.cls-6{fill:#fff;}.cls-2,.cls-6{font-family:AvenirNext-HeavyItalic, Avenir Next;font-weight:800;font-style:italic;}.cls-3{letter-spacing:0em;}.cls-4{letter-spacing:0em;}.cls-6{font-size:65.5px;letter-spacing:-0.04em;}</style></defs><path class="cls-1" d="M279.37,82.05H14.1A14.09,14.09,0,0,1,.22,65.5L9.74,11.64A14.1,14.1,0,0,1,23.62,0H288.89a14.09,14.09,0,0,1,13.88,16.55l-9.52,53.86A14.1,14.1,0,0,1,279.37,82.05Z"/><text class="cls-2" transform="translate(21.76 63.34)">FI<tspan class="cls-3" x="41.48" y="0">T</tspan><tspan x="66.35" y="0">CH</tspan><tspan class="cls-4" x="131.13" y="0">Y</tspan></text><polygon class="cls-5" points="188.87 20.32 187.44 28.34 28.01 28.34 29.43 20.32 188.87 20.32"/><polygon class="cls-5" points="189.77 15.2 189.36 17.5 29.93 17.5 30.15 16.25 30.34 15.2 189.77 15.2"/><text class="cls-6" transform="translate(190.13 63.34)">83</text><path class="cls-5" d="M282.9,16.8v2.45c0,.1,0,.1-.1.1h-.67V15.64h1.09a.07.07,0,0,1,.08.06l.82,2.41a.34.34,0,0,1,0,.08l.82-2.54h1.15v3.69h-.76V16.76h0a1.8,1.8,0,0,1-.08.21c-.26.77-.53,1.55-.8,2.32,0,.05,0,.06-.08.06h-.51a.07.07,0,0,1-.08-.06L283,16.94l-.06-.15Z"/><path class="cls-5" d="M281.71,16.33H280.6v.09c0,.95,0,1.9,0,2.84,0,.07,0,.09-.09.09h-.73v-3h-1.11v-.68h3Z"/><rect class="cls-1" x="45.28" y="53.16" width="16.97" height="2.02"/></svg>